<svg width="36" height="36" viewBox="0 0 36 36" fill="none" xmlns="http://www.w3.org/2000/svg">
<g clip-path="url(#clip0_43_627)">
<rect width="36" height="36" rx="8.25" fill="#1977F3"/>
<g clip-path="url(#clip1_43_627)">
<path d="M36.75 18.375C36.75 8.22754 28.5225 0 18.375 0C8.22754 0 0 8.22754 0 18.375C0 27.5457 6.71846 35.1479 15.5041 36.5278V23.6878H10.8374V18.375H15.5041V14.3258C15.5041 9.7211 18.2484 7.17584 22.4448 7.17584C24.4552 7.17584 26.5586 7.53502 26.5586 7.53502V12.0571H24.2407C21.959 12.0571 21.2459 13.4731 21.2459 14.9279V18.375H26.3415L25.5276 23.6878H21.2459V36.5278C30.0315 35.1505 36.75 27.5483 36.75 18.375Z" fill="#1977F3"/>
<path d="M25.5281 23.6877L26.342 18.3749H21.2463V14.9279C21.2463 13.4756 21.9569 12.057 24.2412 12.057H26.5591V7.53496C26.5591 7.53496 24.4557 7.17578 22.4453 7.17578C18.2489 7.17578 15.5046 9.71846 15.5046 14.3258V18.3749H10.8379V23.6877H15.5046V36.5277C16.4401 36.675 17.3987 36.7499 18.3755 36.7499C19.3523 36.7499 20.3109 36.6724 21.2463 36.5277V23.6877H25.5281Z" fill="#FEFEFE"/>
</g>
</g>
<defs>
<clipPath id="clip0_43_627">
<rect width="36" height="36" rx="8.25" fill="white"/>
</clipPath>
<clipPath id="clip1_43_627">
<rect width="36.75" height="36.75" fill="white"/>
</clipPath>
</defs>
</svg>
