<svg width="48" height="48" viewBox="0 0 48 48" fill="none" xmlns="http://www.w3.org/2000/svg">
<g clip-path="url(#clip0_24_1111)">
<rect width="48" height="48" rx="11" fill="#ED1D24"/>
<g clip-path="url(#clip1_24_1111)">
<path d="M24.0078 0C13.9881 0 11.0576 0.0103406 10.488 0.0575999C8.43181 0.228568 7.15231 0.552416 5.75834 1.24661C4.68409 1.78021 3.83685 2.39872 3.0007 3.26575C1.47792 4.84693 0.555014 6.79219 0.220916 9.10452C0.0584934 10.2271 0.0112338 10.456 0.00163679 16.1899C-0.00204598 18.1012 0.00163679 20.6166 0.00163679 23.9906C0.00163679 34.005 0.0127032 36.9332 0.0607062 37.5019C0.22683 39.5033 0.540609 40.7625 1.2051 42.1398C2.47503 44.7763 4.90039 46.7556 7.75772 47.4941C8.74708 47.7489 9.83979 47.8892 11.2426 47.9557C11.837 47.9815 17.8949 48 23.9565 48C30.0182 48 36.0798 47.9926 36.6594 47.9631C38.2837 47.8866 39.2269 47.76 40.2698 47.4904C43.1455 46.7482 45.5266 44.7985 46.8224 42.125C47.4739 40.7809 47.8043 39.4737 47.9539 37.5768C47.9863 37.1633 48 30.5693 48 23.9843C48 17.3981 47.9852 10.8164 47.9527 10.4028C47.8014 8.47529 47.471 7.17919 46.7984 5.80922C46.2465 4.68777 45.6337 3.85027 44.744 2.99398C43.1562 1.47705 41.2145 0.553885 38.9005 0.220077C37.7794 0.0579629 37.5561 0.00995981 31.8193 0H24.0078Z" fill="url(#paint0_radial_24_1111)"/>
<path d="M24.0078 0C13.9881 0 11.0576 0.0103406 10.488 0.0575999C8.43181 0.228568 7.15231 0.552416 5.75834 1.24661C4.68409 1.78021 3.83685 2.39872 3.0007 3.26575C1.47792 4.84693 0.555014 6.79219 0.220916 9.10452C0.0584934 10.2271 0.0112338 10.456 0.00163679 16.1899C-0.00204598 18.1012 0.00163679 20.6166 0.00163679 23.9906C0.00163679 34.005 0.0127032 36.9332 0.0607062 37.5019C0.22683 39.5033 0.540609 40.7625 1.2051 42.1398C2.47503 44.7763 4.90039 46.7556 7.75772 47.4941C8.74708 47.7489 9.83979 47.8892 11.2426 47.9557C11.837 47.9815 17.8949 48 23.9565 48C30.0182 48 36.0798 47.9926 36.6594 47.9631C38.2837 47.8866 39.2269 47.76 40.2698 47.4904C43.1455 46.7482 45.5266 44.7985 46.8224 42.125C47.4739 40.7809 47.8043 39.4737 47.9539 37.5768C47.9863 37.1633 48 30.5693 48 23.9843C48 17.3981 47.9852 10.8164 47.9527 10.4028C47.8014 8.47529 47.471 7.17919 46.7984 5.80922C46.2465 4.68777 45.6337 3.85027 44.744 2.99398C43.1562 1.47705 41.2145 0.553885 38.9005 0.220077C37.7794 0.0579629 37.5561 0.00995981 31.8193 0H24.0078Z" fill="url(#paint1_radial_24_1111)"/>
<path d="M24.0078 0C13.9881 0 11.0576 0.0103406 10.488 0.0575999C8.43181 0.228568 7.15231 0.552416 5.75834 1.24661C4.68409 1.78021 3.83685 2.39872 3.0007 3.26575C1.47792 4.84693 0.555014 6.79219 0.220916 9.10452C0.0584934 10.2271 0.0112338 10.456 0.00163679 16.1899C-0.00204598 18.1012 0.00163679 20.6166 0.00163679 23.9906C0.00163679 34.005 0.0127032 36.9332 0.0607062 37.5019C0.22683 39.5033 0.540609 40.7625 1.2051 42.1398C2.47503 44.7763 4.90039 46.7556 7.75772 47.4941C8.74708 47.7489 9.83979 47.8892 11.2426 47.9557C11.837 47.9815 17.8949 48 23.9565 48C30.0182 48 36.0798 47.9926 36.6594 47.9631C38.2837 47.8866 39.2269 47.76 40.2698 47.4904C43.1455 46.7482 45.5266 44.7985 46.8224 42.125C47.4739 40.7809 47.8043 39.4737 47.9539 37.5768C47.9863 37.1633 48 30.5693 48 23.9843C48 17.3981 47.9852 10.8164 47.9527 10.4028C47.8014 8.47529 47.471 7.17919 46.7984 5.80922C46.2465 4.68777 45.6337 3.85027 44.744 2.99398C43.1562 1.47705 41.2145 0.553885 38.9005 0.220077C37.7794 0.0579629 37.5561 0.00995981 31.8193 0H24.0078Z" fill="url(#paint2_radial_24_1111)"/>
<path d="M24.0078 0C13.9881 0 11.0576 0.0103406 10.488 0.0575999C8.43181 0.228568 7.15231 0.552416 5.75834 1.24661C4.68409 1.78021 3.83685 2.39872 3.0007 3.26575C1.47792 4.84693 0.555014 6.79219 0.220916 9.10452C0.0584934 10.2271 0.0112338 10.456 0.00163679 16.1899C-0.00204598 18.1012 0.00163679 20.6166 0.00163679 23.9906C0.00163679 34.005 0.0127032 36.9332 0.0607062 37.5019C0.22683 39.5033 0.540609 40.7625 1.2051 42.1398C2.47503 44.7763 4.90039 46.7556 7.75772 47.4941C8.74708 47.7489 9.83979 47.8892 11.2426 47.9557C11.837 47.9815 17.8949 48 23.9565 48C30.0182 48 36.0798 47.9926 36.6594 47.9631C38.2837 47.8866 39.2269 47.76 40.2698 47.4904C43.1455 46.7482 45.5266 44.7985 46.8224 42.125C47.4739 40.7809 47.8043 39.4737 47.9539 37.5768C47.9863 37.1633 48 30.5693 48 23.9843C48 17.3981 47.9852 10.8164 47.9527 10.4028C47.8014 8.47529 47.471 7.17919 46.7984 5.80922C46.2465 4.68777 45.6337 3.85027 44.744 2.99398C43.1562 1.47705 41.2145 0.553885 38.9005 0.220077C37.7794 0.0579629 37.5561 0.00995981 31.8193 0H24.0078Z" fill="url(#paint3_radial_24_1111)"/>
<path d="M24.0099 6.16357C19.163 6.16357 18.5547 6.18475 16.651 6.27132C14.7511 6.35825 13.4543 6.65883 12.3195 7.09985C11.1457 7.55534 10.15 8.16464 9.15802 9.15625C8.1653 10.1475 7.55552 11.1425 7.09821 12.315C6.65575 13.4493 6.35458 14.7456 6.26907 16.6434C6.18394 18.5456 6.16162 19.1538 6.16162 23.9971C6.16162 28.8404 6.18319 29.4463 6.26944 31.3486C6.35683 33.2471 6.65762 34.543 7.09857 35.6769C7.55478 36.8498 8.16454 37.8448 9.15689 38.836C10.1485 39.828 11.1442 40.4388 12.3173 40.8943C13.4527 41.3353 14.75 41.6359 16.6496 41.7229C18.5532 41.8094 19.1611 41.8306 24.0076 41.8306C28.8549 41.8306 29.4613 41.8094 31.365 41.7228C33.2649 41.6359 34.5633 41.3353 35.6987 40.8943C36.8722 40.4388 37.8664 39.828 38.858 38.836C39.8507 37.8448 40.4605 36.8499 40.9178 35.6773C41.3565 34.543 41.6577 33.2467 41.7469 31.3489C41.8324 29.4467 41.8548 28.8404 41.8548 23.9971C41.8548 19.1538 41.8324 18.546 41.7469 16.6437C41.6577 14.7452 41.3565 13.4493 40.9178 12.3154C40.4605 11.1425 39.8507 10.1475 38.858 9.15625C37.8653 8.16426 36.8725 7.55495 35.6976 7.09983C34.5599 6.65883 33.2623 6.35825 31.3624 6.27132C29.4587 6.18475 28.8527 6.16357 24.0043 6.16357H24.0099ZM22.4089 9.37733C22.884 9.37658 23.4142 9.37733 24.0099 9.37733C28.775 9.37733 29.3397 9.39442 31.2214 9.47987C32.9615 9.55938 33.9059 9.8499 34.535 10.094C35.3678 10.4172 35.9616 10.8036 36.5859 11.4278C37.2105 12.052 37.5972 12.6464 37.9214 13.4786C38.1657 14.1065 38.4568 15.0502 38.536 16.789C38.6215 18.6689 38.6401 19.2337 38.6401 23.993C38.6401 28.7523 38.6215 29.3171 38.536 31.197C38.4564 32.9358 38.1657 33.8794 37.9214 34.5073C37.5979 35.3396 37.2105 35.9322 36.5859 36.556C35.9613 37.1801 35.3682 37.5665 34.535 37.8897C33.9066 38.135 32.9615 38.4248 31.2214 38.5043C29.3401 38.5897 28.775 38.6083 24.0099 38.6083C19.2444 38.6083 18.6796 38.5897 16.7983 38.5043C15.0582 38.424 14.1139 38.1335 13.4844 37.8894C12.6515 37.5662 12.0566 37.1798 11.432 36.5556C10.8074 35.9314 10.4207 35.3385 10.0965 34.5058C9.85218 33.878 9.56106 32.9343 9.48187 31.1955C9.39635 29.3155 9.37924 28.7508 9.37924 23.9885C9.37924 19.2263 9.39635 18.6645 9.48187 16.7845C9.56144 15.0458 9.85218 14.1021 10.0965 13.4735C10.4199 12.6412 10.8074 12.0468 11.432 11.4226C12.0566 10.7984 12.6515 10.412 13.4844 10.0881C14.1135 9.84285 15.0582 9.55307 16.7983 9.47317C18.4446 9.39886 19.0827 9.37658 22.4089 9.37285L22.4089 9.37733ZM33.5363 12.3384C32.354 12.3384 31.3947 13.2959 31.3947 14.4777C31.3947 15.6592 32.354 16.6177 33.5363 16.6177C34.7187 16.6177 35.6779 15.6592 35.6779 14.4777C35.6779 13.2962 34.7187 12.3377 33.5363 12.3377L33.5363 12.3384ZM24.0099 14.8388C18.9484 14.8388 14.8448 18.9394 14.8448 23.9971C14.8448 29.0547 18.9484 33.1535 24.0099 33.1535C29.0713 33.1535 33.1734 29.0547 33.1734 23.9971C33.1734 18.9394 29.0709 14.8388 24.0095 14.8388H24.0099ZM24.0099 18.0526C27.2951 18.0526 29.9588 20.7139 29.9588 23.9971C29.9588 27.2799 27.2951 29.9416 24.0099 29.9416C20.7242 29.9416 18.0609 27.2799 18.0609 23.9971C18.0609 20.7139 20.7242 18.0526 24.0099 18.0526Z" fill="white"/>
</g>
</g>
<defs>
<radialGradient id="paint0_radial_24_1111" cx="0" cy="0" r="1" gradientTransform="matrix(-29.5179 8.32472 -5.99765 -21.2662 46.4501 22.4982)" gradientUnits="userSpaceOnUse">
<stop stop-color="#FF005F"/>
<stop offset="1" stop-color="#FC01D8"/>
</radialGradient>
<radialGradient id="paint1_radial_24_1111" cx="0" cy="0" r="1" gradientUnits="userSpaceOnUse" gradientTransform="translate(12.7496 51.697) rotate(-90) scale(38.3145 40.6509)">
<stop stop-color="#FFCC00"/>
<stop offset="0.1242" stop-color="#FFCC00"/>
<stop offset="0.5672" stop-color="#FE4A05"/>
<stop offset="0.6942" stop-color="#FF0F3F"/>
<stop offset="1" stop-color="#FE0657" stop-opacity="0"/>
</radialGradient>
<radialGradient id="paint2_radial_24_1111" cx="0" cy="0" r="1" gradientTransform="matrix(7.95273 -13.7028 17.8395 10.3536 25.2129 47.3231)" gradientUnits="userSpaceOnUse">
<stop stop-color="#FFCC00"/>
<stop offset="1" stop-color="#FFCC00" stop-opacity="0"/>
</radialGradient>
<radialGradient id="paint3_radial_24_1111" cx="0" cy="0" r="1" gradientTransform="matrix(-29.1938 8.22048 -2.79999 -9.9465 6.51257 1.95455)" gradientUnits="userSpaceOnUse">
<stop stop-color="#780CFF"/>
<stop offset="1" stop-color="#820BFF" stop-opacity="0"/>
</radialGradient>
<clipPath id="clip0_24_1111">
<rect width="48" height="48" rx="11" fill="white"/>
</clipPath>
<clipPath id="clip1_24_1111">
<rect width="48" height="48" fill="white"/>
</clipPath>
</defs>
</svg>
