<svg width="36" height="36" viewBox="0 0 36 36" fill="none" xmlns="http://www.w3.org/2000/svg">
<rect width="36" height="36" rx="8.25" fill="#8DBA38"/>
<path d="M18 8.25C16.0716 8.25 14.1866 8.82183 12.5832 9.89317C10.9798 10.9645 9.73013 12.4873 8.99218 14.2688C8.25422 16.0504 8.06114 18.0108 8.43735 19.9021C8.81355 21.7934 9.74215 23.5307 11.1057 24.8943C12.4693 26.2579 14.2066 27.1865 16.0979 27.5627C17.9892 27.9389 19.9496 27.7458 21.7312 27.0078C23.5127 26.2699 25.0355 25.0202 26.1068 23.4168C27.1782 21.8134 27.75 19.9284 27.75 18C27.747 15.4151 26.7188 12.9368 24.891 11.109C23.0632 9.28116 20.585 8.25298 18 8.25ZM26.25 18C26.2507 18.7608 26.1456 19.5181 25.9378 20.25H22.3275C22.5575 18.7588 22.5575 17.2412 22.3275 15.75H25.9378C26.1456 16.4819 26.2507 17.2392 26.25 18ZM15.5625 21.75H20.4375C19.9572 23.3237 19.1235 24.7667 18 25.9688C16.877 24.7664 16.0433 23.3235 15.5625 21.75ZM15.1969 20.25C14.9394 18.7611 14.9394 17.2389 15.1969 15.75H20.8106C21.0681 17.2389 21.0681 18.7611 20.8106 20.25H15.1969ZM9.75 18C9.74935 17.2392 9.85442 16.4819 10.0622 15.75H13.6725C13.4425 17.2412 13.4425 18.7588 13.6725 20.25H10.0622C9.85442 19.5181 9.74935 18.7608 9.75 18ZM20.4375 14.25H15.5625C16.0428 12.6763 16.8765 11.2333 18 10.0312C19.1231 11.2336 19.9567 12.6765 20.4375 14.25ZM25.3434 14.25H22.0041C21.5832 12.7059 20.8738 11.2553 19.9134 9.975C21.0738 10.2537 22.1602 10.7801 23.098 11.518C24.0359 12.2559 24.8032 13.1878 25.3472 14.25H25.3434ZM16.0866 9.975C15.1262 11.2553 14.4168 12.7059 13.9959 14.25H10.6528C11.1968 13.1878 11.9641 12.2559 12.902 11.518C13.8399 10.7801 14.9262 10.2537 16.0866 9.975ZM10.6528 21.75H13.9959C14.4168 23.2941 15.1262 24.7447 16.0866 26.025C14.9262 25.7463 13.8399 25.2199 12.902 24.482C11.9641 23.7441 11.1968 22.8122 10.6528 21.75ZM19.9134 26.025C20.8738 24.7447 21.5832 23.2941 22.0041 21.75H25.3472C24.8032 22.8122 24.0359 23.7441 23.098 24.482C22.1602 25.2199 21.0738 25.7463 19.9134 26.025Z" fill="white"/>
</svg>
