<svg width="36" height="36" viewBox="0 0 36 36" fill="none" xmlns="http://www.w3.org/2000/svg">
<rect width="36" height="36" rx="8.25" fill="#0A66C2"/>
<path d="M26.3382 26.8803H22.671V21.1939C22.671 19.8379 22.6466 18.0923 20.7637 18.0923C18.8537 18.0923 18.5615 19.5697 18.5615 21.0952V26.8799H14.8943V15.1864H18.4148V16.7844H18.4641C18.8164 16.1879 19.3255 15.6973 19.9372 15.3646C20.5488 15.032 21.2402 14.8699 21.9376 14.8955C25.6544 14.8955 26.3397 17.3162 26.3397 20.4654L26.3382 26.8803ZM10.7565 13.5879C10.3356 13.588 9.92411 13.4645 9.5741 13.233C9.22409 13.0016 8.95129 12.6725 8.79015 12.2875C8.62901 11.9025 8.58678 11.4788 8.66881 11.0701C8.75085 10.6613 8.95348 10.2858 9.25104 9.99108C9.54861 9.69633 9.92777 9.49558 10.3406 9.4142C10.7534 9.33282 11.1813 9.37448 11.5701 9.53389C11.959 9.69331 12.2914 9.96333 12.5254 10.3098C12.7593 10.6563 12.8841 11.0637 12.8842 11.4804C12.8843 11.7571 12.8293 12.0311 12.7224 12.2868C12.6155 12.5425 12.4588 12.7748 12.2612 12.9705C12.0636 13.1662 11.829 13.3215 11.5708 13.4274C11.3127 13.5333 11.036 13.5879 10.7565 13.5879ZM12.5901 26.8803H8.91908V15.1864H12.5901V26.8803ZM28.1664 6.00167H7.07633C6.59765 5.99632 6.13638 6.17936 5.79392 6.51057C5.45147 6.84178 5.25584 7.29406 5.25 7.76803V28.737C5.25564 29.2112 5.45115 29.6638 5.7936 29.9954C6.13604 30.3269 6.59741 30.5103 7.07633 30.5053H28.1664C28.6463 30.5112 29.1089 30.3284 29.4527 29.9968C29.7965 29.6653 29.9934 29.2122 30 28.737V7.76652C29.9932 7.29161 29.7962 6.83882 29.4524 6.50761C29.1086 6.17641 28.6461 5.99389 28.1664 6.00016" fill="white"/>
</svg>
