<svg width="48" height="48" viewBox="0 0 48 48" fill="none" xmlns="http://www.w3.org/2000/svg">
<g clip-path="url(#clip0_24_1350)">
<rect width="48" height="48" rx="11" fill="#8DBA38"/>
<g clip-path="url(#clip1_24_1350)">
<path d="M48 0H0V48H48V0Z" fill="#FF4500"/>
<path d="M37.6126 28.7999C40.7088 28.7999 43.2188 26.2899 43.2188 23.1937C43.2188 20.0974 40.7088 17.5874 37.6126 17.5874C34.5164 17.5874 32.0063 20.0974 32.0063 23.1937C32.0063 26.2899 34.5164 28.7999 37.6126 28.7999Z" fill="url(#paint0_radial_24_1350)"/>
<path d="M10.3875 28.7999C13.4837 28.7999 15.9937 26.2899 15.9937 23.1937C15.9937 20.0974 13.4837 17.5874 10.3875 17.5874C7.29125 17.5874 4.78125 20.0974 4.78125 23.1937C4.78125 26.2899 7.29125 28.7999 10.3875 28.7999Z" fill="url(#paint1_radial_24_1350)"/>
<path d="M24.0187 39.9937C32.8518 39.9937 40.0124 34.6211 40.0124 27.9937C40.0124 21.3662 32.8518 15.9937 24.0187 15.9937C15.1855 15.9937 8.0249 21.3662 8.0249 27.9937C8.0249 34.6211 15.1855 39.9937 24.0187 39.9937Z" fill="url(#paint2_radial_24_1350)"/>
<path d="M19.275 26.8313C19.1812 28.8563 17.8312 29.6062 16.2562 29.6062C14.6812 29.6062 13.4812 28.5562 13.575 26.5312C13.6687 24.5062 15.0187 23.1562 16.5937 23.1562C18.1687 23.1562 19.3687 24.8063 19.275 26.8313Z" fill="#842123"/>
<path d="M34.4249 26.5312C34.5186 28.5562 33.3186 29.6062 31.7436 29.6062C30.1686 29.6062 28.8186 28.875 28.7249 26.8313C28.6311 24.8063 29.8311 23.1562 31.4061 23.1562C32.9811 23.1562 34.3311 24.4875 34.4249 26.5312Z" fill="#842123"/>
<path d="M28.7432 27.0189C28.8369 28.9127 30.0932 29.6064 31.5557 29.6064C33.0182 29.6064 34.1432 28.5752 34.0682 26.6627C33.9744 24.7689 32.7182 23.5127 31.2557 23.5127C29.7932 23.5127 28.6494 25.1064 28.7432 27.0189Z" fill="url(#paint3_radial_24_1350)"/>
<path d="M19.2751 27.0189C19.1813 28.9127 17.9251 29.6064 16.4626 29.6064C15.0001 29.6064 13.8751 28.5752 13.9688 26.6627C14.0626 24.7689 15.3188 23.5127 16.7813 23.5127C18.2438 23.5127 19.3688 25.1064 19.2751 27.0189Z" fill="url(#paint4_radial_24_1350)"/>
<path d="M24.019 30.9561C22.0315 30.9561 20.1378 31.0498 18.3753 31.2186C18.0753 31.2561 17.8878 31.5561 18.0003 31.8186C18.9753 34.1248 21.3003 35.7561 24.019 35.7561C26.7378 35.7561 29.044 34.1436 30.0378 31.8186C30.1503 31.5373 29.9628 31.2373 29.6628 31.2186C27.9003 31.0498 26.0065 30.9561 24.019 30.9561Z" fill="#BBCFDA"/>
<path d="M24.0188 31.4062C22.0313 31.4062 20.1376 31.5 18.3938 31.6875C18.0938 31.725 17.9063 32.025 18.0188 32.3063C18.9938 34.65 21.3188 36.3 24.0188 36.3C26.7188 36.3 29.0438 34.65 30.0188 32.3063C30.1313 32.025 29.9438 31.725 29.6438 31.6875C27.8813 31.5 25.9876 31.4062 24.0188 31.4062Z" fill="white"/>
<path d="M24.0188 31.1626C22.0688 31.1626 20.2126 31.2563 18.4876 31.4251C18.1876 31.4626 18.0001 31.7626 18.1126 32.0251C19.0876 34.3313 21.3563 35.9626 24.0188 35.9626C26.6813 35.9626 28.9501 34.3501 29.9251 32.0251C30.0376 31.7438 29.8501 31.4438 29.5501 31.4251C27.8251 31.2751 25.9688 31.1626 24.0188 31.1626Z" fill="url(#paint5_radial_24_1350)"/>
<path d="M32.7748 14.3812C34.9701 14.3812 36.7498 12.6015 36.7498 10.4062C36.7498 8.21082 34.9701 6.43115 32.7748 6.43115C30.5795 6.43115 28.7998 8.21082 28.7998 10.4062C28.7998 12.6015 30.5795 14.3812 32.7748 14.3812Z" fill="url(#paint6_radial_24_1350)"/>
<path d="M23.9626 16.5002C23.4938 16.5002 23.1001 16.2939 23.1001 15.9939C23.1001 12.4314 25.9876 9.54395 29.5501 9.54395C30.0188 9.54395 30.4126 9.9377 30.4126 10.4064C30.4126 10.8752 30.0188 11.2689 29.5501 11.2689C26.9438 11.2689 24.8251 13.3877 24.8251 15.9939C24.8251 16.3127 24.4313 16.5002 23.9626 16.5002Z" fill="url(#paint7_radial_24_1350)"/>
<path d="M18.2438 27.9563C18.2438 28.6875 17.4563 29.025 16.5001 29.025C15.5438 29.025 14.7563 28.6875 14.7563 27.9563C14.7563 27.225 15.5438 26.625 16.5001 26.625C17.4563 26.625 18.2438 27.2063 18.2438 27.9563Z" fill="#FF6101"/>
<path d="M33.2814 27.9563C33.2814 28.6875 32.4939 29.025 31.5377 29.025C30.5814 29.025 29.7939 28.6875 29.7939 27.9563C29.7939 27.225 30.5814 26.625 31.5377 26.625C32.4939 26.625 33.2814 27.2063 33.2814 27.9563Z" fill="#FF6101"/>
<path d="M17.6998 25.9501C18.0415 25.9501 18.3186 25.6479 18.3186 25.2751C18.3186 24.9023 18.0415 24.6001 17.6998 24.6001C17.3581 24.6001 17.0811 24.9023 17.0811 25.2751C17.0811 25.6479 17.3581 25.9501 17.6998 25.9501Z" fill="#FFC49C"/>
<path d="M32.4938 25.9501C32.8355 25.9501 33.1125 25.6479 33.1125 25.2751C33.1125 24.9023 32.8355 24.6001 32.4938 24.6001C32.152 24.6001 31.875 24.9023 31.875 25.2751C31.875 25.6479 32.152 25.9501 32.4938 25.9501Z" fill="#FFC49C"/>
</g>
</g>
<defs>
<radialGradient id="paint0_radial_24_1350" cx="0" cy="0" r="1" gradientUnits="userSpaceOnUse" gradientTransform="translate(37.3713 20.1669) scale(11.2315 9.79772)">
<stop stop-color="#FEFFFF"/>
<stop offset="0.4" stop-color="#FEFFFF"/>
<stop offset="0.51" stop-color="#F9FCFC"/>
<stop offset="0.62" stop-color="#EDF3F5"/>
<stop offset="0.7" stop-color="#DEE9EC"/>
<stop offset="0.72" stop-color="#D8E4E8"/>
<stop offset="0.76" stop-color="#CCD8DF"/>
<stop offset="0.8" stop-color="#C8D5DD"/>
<stop offset="0.83" stop-color="#CCD6DE"/>
<stop offset="0.85" stop-color="#D8DBE2"/>
<stop offset="0.88" stop-color="#EDE3E9"/>
<stop offset="0.9" stop-color="#FFEBEF"/>
</radialGradient>
<radialGradient id="paint1_radial_24_1350" cx="0" cy="0" r="1" gradientUnits="userSpaceOnUse" gradientTransform="translate(10.1612 20.1669) scale(11.2315 9.79772)">
<stop stop-color="#FEFFFF"/>
<stop offset="0.4" stop-color="#FEFFFF"/>
<stop offset="0.51" stop-color="#F9FCFC"/>
<stop offset="0.62" stop-color="#EDF3F5"/>
<stop offset="0.7" stop-color="#DEE9EC"/>
<stop offset="0.72" stop-color="#D8E4E8"/>
<stop offset="0.76" stop-color="#CCD8DF"/>
<stop offset="0.8" stop-color="#C8D5DD"/>
<stop offset="0.83" stop-color="#CCD6DE"/>
<stop offset="0.85" stop-color="#D8DBE2"/>
<stop offset="0.88" stop-color="#EDE3E9"/>
<stop offset="0.9" stop-color="#FFEBEF"/>
</radialGradient>
<radialGradient id="paint2_radial_24_1350" cx="0" cy="0" r="1" gradientUnits="userSpaceOnUse" gradientTransform="translate(24.1215 18.5954) scale(33.8788 23.7872)">
<stop stop-color="#FEFFFF"/>
<stop offset="0.4" stop-color="#FEFFFF"/>
<stop offset="0.51" stop-color="#F9FCFC"/>
<stop offset="0.62" stop-color="#EDF3F5"/>
<stop offset="0.7" stop-color="#DEE9EC"/>
<stop offset="0.72" stop-color="#D8E4E8"/>
<stop offset="0.76" stop-color="#CCD8DF"/>
<stop offset="0.8" stop-color="#C8D5DD"/>
<stop offset="0.83" stop-color="#CCD6DE"/>
<stop offset="0.85" stop-color="#D8DBE2"/>
<stop offset="0.88" stop-color="#EDE3E9"/>
<stop offset="0.9" stop-color="#FFEBEF"/>
</radialGradient>
<radialGradient id="paint3_radial_24_1350" cx="0" cy="0" r="1" gradientUnits="userSpaceOnUse" gradientTransform="translate(31.3088 28.3073) rotate(180) scale(2.83057 4.15552)">
<stop stop-color="#FF6600"/>
<stop offset="0.5" stop-color="#FF4500"/>
<stop offset="0.7" stop-color="#FC4301"/>
<stop offset="0.82" stop-color="#F43F07"/>
<stop offset="0.92" stop-color="#E53812"/>
<stop offset="1" stop-color="#D4301F"/>
</radialGradient>
<radialGradient id="paint4_radial_24_1350" cx="0" cy="0" r="1" gradientUnits="userSpaceOnUse" gradientTransform="translate(16.5914 28.3073) scale(2.83058 4.15552)">
<stop stop-color="#FF6600"/>
<stop offset="0.5" stop-color="#FF4500"/>
<stop offset="0.7" stop-color="#FC4301"/>
<stop offset="0.82" stop-color="#F43F07"/>
<stop offset="0.92" stop-color="#E53812"/>
<stop offset="1" stop-color="#D4301F"/>
</radialGradient>
<radialGradient id="paint5_radial_24_1350" cx="0" cy="0" r="1" gradientUnits="userSpaceOnUse" gradientTransform="translate(23.7498 36.5453) scale(9.98104 6.58324)">
<stop stop-color="#172E35"/>
<stop offset="0.29" stop-color="#0E1C21"/>
<stop offset="0.73" stop-color="#030708"/>
<stop offset="1"/>
</radialGradient>
<radialGradient id="paint6_radial_24_1350" cx="0" cy="0" r="1" gradientUnits="userSpaceOnUse" gradientTransform="translate(32.5523 6.3948) scale(8.76139 8.76139)">
<stop stop-color="#FEFFFF"/>
<stop offset="0.4" stop-color="#FEFFFF"/>
<stop offset="0.51" stop-color="#F9FCFC"/>
<stop offset="0.62" stop-color="#EDF3F5"/>
<stop offset="0.7" stop-color="#DEE9EC"/>
<stop offset="0.72" stop-color="#D8E4E8"/>
<stop offset="0.76" stop-color="#CCD8DF"/>
<stop offset="0.8" stop-color="#C8D5DD"/>
<stop offset="0.83" stop-color="#CCD6DE"/>
<stop offset="0.85" stop-color="#D8DBE2"/>
<stop offset="0.88" stop-color="#EDE3E9"/>
<stop offset="0.9" stop-color="#FFEBEF"/>
</radialGradient>
<radialGradient id="paint7_radial_24_1350" cx="0" cy="0" r="1" gradientUnits="userSpaceOnUse" gradientTransform="translate(28.9007 15.9463) scale(7.18131)">
<stop offset="0.48" stop-color="#7A9299"/>
<stop offset="0.67" stop-color="#172E35"/>
<stop offset="0.75"/>
<stop offset="0.82" stop-color="#172E35"/>
</radialGradient>
<clipPath id="clip0_24_1350">
<rect width="48" height="48" rx="11" fill="white"/>
</clipPath>
<clipPath id="clip1_24_1350">
<rect width="48" height="48" fill="white"/>
</clipPath>
</defs>
</svg>
