<svg width="36" height="36" viewBox="0 0 36 36" fill="none" xmlns="http://www.w3.org/2000/svg">
<g clip-path="url(#clip0_43_678)">
<rect width="36" height="36" rx="8.25" fill="black"/>
<g clip-path="url(#clip1_43_678)">
<g clip-path="url(#clip2_43_678)">
<path d="M18.0005 36.0009C27.9418 36.0009 36.0009 27.9418 36.0009 18.0005C36.0009 8.05908 27.9418 0 18.0005 0C8.05908 0 0 8.05908 0 18.0005C0 27.9418 8.05908 36.0009 18.0005 36.0009Z" fill="black"/>
<path d="M15.4957 14.9666V13.9841C15.1589 13.9381 14.8167 13.9092 14.4672 13.9092C10.2592 13.9092 6.83594 17.3325 6.83594 21.5405C6.83594 24.1221 8.12633 26.4067 10.094 27.7883C8.82345 26.4248 8.04416 24.598 8.04416 22.5925C8.04416 18.445 11.3708 15.0623 15.4957 14.9657V14.9666Z" fill="#25F4EE"/>
<path d="M15.6752 26.079C17.5525 26.079 19.084 24.5855 19.1535 22.7253L19.1599 6.10913H22.1958C22.1325 5.76779 22.0982 5.41652 22.0982 5.05713H17.9516L17.9453 21.6733C17.8758 23.5344 16.3443 25.027 14.467 25.027C13.8836 25.027 13.3337 24.8807 12.8506 24.627C13.4845 25.5047 14.513 26.0799 15.6761 26.0799L15.6752 26.079Z" fill="#25F4EE"/>
<path d="M27.8671 11.7476V10.8238C26.7095 10.8238 25.6304 10.4798 24.7256 9.89014C25.5311 10.8148 26.6255 11.4821 27.8671 11.7476Z" fill="#25F4EE"/>
<path d="M24.7246 9.88968C23.8424 8.87652 23.306 7.55362 23.306 6.10791H22.1953C22.4879 7.68726 23.4252 9.04267 24.7246 9.88968Z" fill="#FE2C55"/>
<path d="M14.467 18.0555C12.5454 18.0555 10.9814 19.6186 10.9814 21.5411C10.9814 22.8794 11.7409 24.0424 12.8498 24.6258C12.4362 24.0533 12.1897 23.3516 12.1897 22.5931C12.1897 20.6715 13.7537 19.1075 15.6753 19.1075C16.0337 19.1075 16.3778 19.1671 16.7038 19.2683V15.0359C16.367 14.9898 16.0247 14.9609 15.6753 14.9609C15.6148 14.9609 15.5552 14.9645 15.4947 14.9655V18.2163C15.1696 18.1142 14.8246 18.0555 14.4661 18.0555H14.467Z" fill="#FE2C55"/>
<path d="M27.8666 11.748V14.9709C25.7166 14.9709 23.7246 14.2828 22.0983 13.1161V21.542C22.0983 25.75 18.675 29.1733 14.467 29.1733C12.8407 29.1733 11.3327 28.6604 10.0938 27.7899C11.488 29.2862 13.4737 30.2253 15.6761 30.2253C19.8841 30.2253 23.3074 26.802 23.3074 22.594V14.1681C24.9337 15.3357 26.9257 16.0229 29.0758 16.0229V11.8763C28.6613 11.8763 28.2567 11.8311 27.8675 11.748H27.8666Z" fill="#FE2C55"/>
<path d="M22.0983 21.5411V13.1152C23.7246 14.2828 25.7166 14.97 27.8667 14.97V11.7472C26.625 11.4817 25.5306 10.8144 24.7251 9.88968C23.4257 9.04267 22.4884 7.68726 22.1958 6.10791H19.1599L19.1536 22.7241C19.0841 24.5851 17.5526 26.0778 15.6752 26.0778C14.5122 26.0778 13.4836 25.5035 12.8497 24.6249C11.7399 24.0406 10.9814 22.8785 10.9814 21.5402C10.9814 19.6186 12.5454 18.0546 14.467 18.0546C14.8255 18.0546 15.1695 18.1142 15.4955 18.2154V14.9646C11.3706 15.0612 8.04395 18.4438 8.04395 22.5913C8.04395 24.5978 8.82324 26.4237 10.0938 27.7872C11.3336 28.6577 12.8407 29.1706 14.467 29.1706C18.675 29.1706 22.0983 25.7473 22.0983 21.5393V21.5411Z" fill="white"/>
</g>
</g>
</g>
<defs>
<clipPath id="clip0_43_678">
<rect width="36" height="36" rx="8.25" fill="white"/>
</clipPath>
<clipPath id="clip1_43_678">
<rect width="36" height="36" fill="white"/>
</clipPath>
<clipPath id="clip2_43_678">
<rect width="36" height="36" fill="white"/>
</clipPath>
</defs>
</svg>
